<svg width="166" height="32" viewBox="0 0 166 32" fill="none" xmlns="http://www.w3.org/2000/svg">
<path d="M12.5257 4.6154C13.0916 5.41053 13.0431 5.97269 13.0431 5.97269L12.6906 5.68258L12.3763 5.42954L11.7122 4.87186L11.1393 4.36095C11.1393 4.36095 10.8524 4.10067 10.7419 4.01753C10.6315 3.9344 10.7677 3.63153 11.0124 3.52617C11.2572 3.42081 11.4922 3.61422 11.4922 3.61422C11.4922 3.61422 11.9599 3.82026 12.5257 4.6154Z" fill="#532638"/>
<path d="M14.0839 4.24474C11.6705 5.73424 10.9354 6.77528 10.002 8.75815C10.002 8.75815 15.6692 11.0984 16.268 11.0984C16.8668 11.0984 18.347 11.0917 19.5719 10.1692C20.7967 9.2468 21.8965 7.4307 22.8407 5.32191C20.8401 3.82238 20.1365 3.23053 17.5303 3.19385C16.1538 3.26287 15.175 3.62669 14.0839 4.24474Z" fill="#27E62B" fill-opacity="0.75"/>
<path d="M18.8903 4.51832C18.8565 4.93327 18.4555 5.23887 17.9945 5.2009C17.5335 5.16294 17.1873 4.79578 17.221 4.38084C17.2548 3.96589 17.6558 3.66029 18.1168 3.69826C18.5777 3.73622 18.924 4.10338 18.8903 4.51832Z" fill="#F6F4E9"/>
<path d="M5.84546 6.99735C4.15531 8.11553 2.86389 9.43624 2.03927 11.476C1.21467 13.5158 3.34921 16.4975 6.20756 17.9945C8.96237 19.2289 10.5059 19.3597 13.2582 19.1918C15.6606 18.973 17.5151 18.4379 19.2888 17.0633C21.0626 15.6887 22.5702 12.9837 21.7277 11.2543C20.8852 9.52493 19.9097 8.28331 18.0029 7.04169C16.0961 5.80008 13.9603 5.22363 11.7061 5.22363C9.37441 5.23656 7.78925 5.71139 5.84546 6.99735Z" fill="#FCF3D8"/>
<path d="M6.57786 7.65722C5.10188 8.5763 3.97405 9.66184 3.2539 11.3384C2.53379 13.015 4.39791 15.4657 6.89408 16.6961C9.29985 17.7107 10.6478 17.8183 13.0513 17.6802C15.1494 17.5004 16.769 17.0606 18.3179 15.9307C19.8669 14.8009 21.1836 12.5776 20.4478 11.1562C19.712 9.73473 18.8601 8.7142 17.1949 7.69367C15.5297 6.67318 13.6646 6.19934 11.696 6.19934C9.65968 6.20997 8.27539 6.60028 6.57786 7.65722Z" fill="#E59A63"/>
<path d="M7.35683 9.01732C7.96046 8.90915 8.41479 8.62605 8.37159 8.38499C8.3284 8.14392 7.80404 8.03619 7.2004 8.14436C6.59676 8.25252 6.14244 8.53563 6.18564 8.77669C6.22883 9.01775 6.75319 9.12548 7.35683 9.01732Z" fill="#401D30"/>
<path d="M16.5394 8.96283C17.1473 9.04371 17.6663 8.91248 17.6986 8.66972C17.7309 8.42696 17.2642 8.16459 16.6564 8.08371C16.0485 8.00283 15.5295 8.13405 15.4972 8.37681C15.4649 8.61958 15.9315 8.88194 16.5394 8.96283Z" fill="#401D30"/>
<path d="M5.84592 15.5115C6.58063 15.5115 7.17622 15.1939 7.17622 14.802C7.17622 14.4102 6.58063 14.0925 5.84592 14.0925C5.11122 14.0925 4.51562 14.4102 4.51562 14.802C4.51562 15.1939 5.11122 15.5115 5.84592 15.5115Z" fill="#FB6A76"/>
<path d="M17.9973 15.5115C18.732 15.5115 19.3276 15.1939 19.3276 14.802C19.3276 14.4102 18.732 14.0925 17.9973 14.0925C17.2626 14.0925 16.667 14.4102 16.667 14.802C16.667 15.1939 17.2626 15.5115 17.9973 15.5115Z" fill="#FB6A76"/>
<path d="M6.83437 11.9222C7.28978 11.9222 7.65896 11.6054 7.65896 11.2145C7.65896 10.8237 7.28978 10.5068 6.83437 10.5068C6.37895 10.5068 6.00977 10.8237 6.00977 11.2145C6.00977 11.6054 6.37895 11.9222 6.83437 11.9222Z" fill="#F6F4E9"/>
<path d="M15.8793 11.9222C16.3347 11.9222 16.7039 11.6054 16.7039 11.2145C16.7039 10.8237 16.3347 10.5068 15.8793 10.5068C15.4239 10.5068 15.0547 10.8237 15.0547 11.2145C15.0547 11.6054 15.4239 11.9222 15.8793 11.9222Z" fill="#F6F4E9"/>
<path d="M11.878 27.1927C17.9515 27.1927 22.8751 22.2692 22.8751 16.1956C22.8751 10.1221 17.9515 5.19849 11.878 5.19849C5.80444 5.19849 0.880859 10.1221 0.880859 16.1956C0.880859 22.2692 5.80444 27.1927 11.878 27.1927Z" fill="#BE5133"/>
<path d="M5.84538 6.89529C4.15319 8.01228 2.86022 9.33166 2.03461 11.3693C1.209 13.407 3.34614 16.3856 6.20791 17.881C8.96605 19.1141 10.5114 19.2448 13.267 19.0771C15.6723 18.8585 17.5291 18.324 19.305 16.9508C21.0809 15.5776 22.5903 12.8754 21.7468 11.1478C20.9033 9.42022 19.9265 8.17993 18.0175 6.93959C16.1084 5.69926 13.97 5.12341 11.7131 5.12341C9.3786 5.1363 7.79152 5.6107 5.84538 6.89529Z" fill="#FCF3D8"/>
<path d="M6.57786 7.65722C5.10188 8.5763 3.97405 9.66184 3.2539 11.3384C2.53379 13.015 4.39791 15.4657 6.89408 16.6961C9.29985 17.7107 10.6478 17.8183 13.0513 17.6802C15.1494 17.5004 16.769 17.0606 18.3179 15.9307C19.8669 14.8009 21.1836 12.5776 20.4478 11.1562C19.712 9.73473 18.8601 8.7142 17.1949 7.69367C15.5297 6.67318 13.6646 6.19934 11.696 6.19934C9.65968 6.20997 8.27539 6.60028 6.57786 7.65722Z" fill="#E59A63"/>
<path d="M7.35683 9.01732C7.96046 8.90915 8.41479 8.62605 8.37159 8.38499C8.3284 8.14392 7.80404 8.03619 7.2004 8.14436C6.59676 8.25252 6.14244 8.53563 6.18564 8.77669C6.22883 9.01775 6.75319 9.12548 7.35683 9.01732Z" fill="#401D30"/>
<path d="M16.5394 8.96283C17.1473 9.04371 17.6663 8.91248 17.6986 8.66972C17.7309 8.42696 17.2642 8.16459 16.6564 8.08371C16.0485 8.00283 15.5295 8.13405 15.4972 8.37681C15.4649 8.61958 15.9315 8.88194 16.5394 8.96283Z" fill="#401D30"/>
<path d="M5.84592 15.5115C6.58063 15.5115 7.17622 15.1939 7.17622 14.802C7.17622 14.4102 6.58063 14.0925 5.84592 14.0925C5.11122 14.0925 4.51562 14.4102 4.51562 14.802C4.51562 15.1939 5.11122 15.5115 5.84592 15.5115Z" fill="#FB6A76"/>
<path d="M17.9973 15.5115C18.732 15.5115 19.3276 15.1939 19.3276 14.802C19.3276 14.4102 18.732 14.0925 17.9973 14.0925C17.2626 14.0925 16.667 14.4102 16.667 14.802C16.667 15.1939 17.2626 15.5115 17.9973 15.5115Z" fill="#FB6A76"/>
<path d="M7.35522 14.0038C8.48177 14.0038 9.39501 13.0905 9.39501 11.964C9.39501 10.8374 8.48177 9.92419 7.35522 9.92419C6.22868 9.92419 5.31543 10.8374 5.31543 11.964C5.31543 13.0905 6.22868 14.0038 7.35522 14.0038Z" fill="#401D30"/>
<path d="M6.83437 11.9222C7.28978 11.9222 7.65896 11.6054 7.65896 11.2145C7.65896 10.8237 7.28978 10.5068 6.83437 10.5068C6.37895 10.5068 6.00977 10.8237 6.00977 11.2145C6.00977 11.6054 6.37895 11.9222 6.83437 11.9222Z" fill="#F6F4E9"/>
<path d="M16.4021 14.0038C17.5286 14.0038 18.4419 13.0905 18.4419 11.964C18.4419 10.8374 17.5286 9.92419 16.4021 9.92419C15.2756 9.92419 14.3623 10.8374 14.3623 11.964C14.3623 13.0905 15.2756 14.0038 16.4021 14.0038Z" fill="#401D30"/>
<path d="M15.8793 11.9222C16.3347 11.9222 16.7039 11.6054 16.7039 11.2145C16.7039 10.8237 16.3347 10.5068 15.8793 10.5068C15.4239 10.5068 15.0547 10.8237 15.0547 11.2145C15.0547 11.6054 15.4239 11.9222 15.8793 11.9222Z" fill="#F6F4E9"/>
<path d="M11.201 25.313C10.8391 25.2668 9.96094 22.7872 10.4028 20.923C10.7931 20.5985 11.0005 20.7016 11.0679 21.1004C10.7256 23.2705 11.0931 23.9035 11.7774 25.0026C11.6694 25.3161 11.5628 25.3592 11.201 25.313Z" fill="#6A1E23"/>
<path d="M19.8153 19.1529C19.8563 18.7518 19.0618 18.385 19.1058 19.1529C19.1498 19.9208 18.3711 22.573 18.0859 22.9665C17.8007 23.3599 18.2633 23.676 18.7067 23.3655C19.1502 23.0551 19.7743 19.554 19.8153 19.1529Z" fill="#7A2826"/>
<path d="M4.95898 20.696C5.05766 20.2292 5.44674 20.1639 5.57977 20.563C5.71281 20.9621 6.0732 22.085 6.7327 23.1349C7.35353 23.8444 7.7289 23.9264 8.37342 24.2878C8.48166 24.5 8.32908 24.7756 8.1517 24.8199C7.97432 24.8643 7.22049 24.5095 6.68835 23.9774C6.32015 23.552 6.11161 23.3486 5.75715 22.6915C5.37879 21.9626 5.18156 21.5428 4.95898 20.696Z" fill="#6A1E23"/>
<path d="M10.739 12.3346L10.731 12.3276C10.6537 12.2623 10.518 12.2693 10.4241 12.3069C10.3847 12.3226 10.3509 12.3497 10.327 12.3847L10.3228 12.3908C10.2958 12.4304 10.2812 12.4772 10.2812 12.5252V12.5846C10.2812 12.7018 10.3036 12.8179 10.3471 12.9267L10.3699 12.9837L10.4113 13.0561C10.5014 13.2137 10.6184 13.3573 10.7541 13.4779C10.8804 13.5901 11.025 13.6838 11.1794 13.7524C11.2898 13.8014 11.4053 13.8382 11.5238 13.8619L11.6145 13.88C11.7305 13.9032 11.8485 13.9149 11.9668 13.9149H11.9736C12.116 13.9149 12.2579 13.8974 12.396 13.8629C12.4937 13.8385 12.589 13.8057 12.681 13.7648L12.7741 13.7234C12.8854 13.674 12.9888 13.6086 13.0813 13.5294C13.1944 13.4324 13.2893 13.3161 13.3617 13.1859L13.4084 13.1018C13.4519 13.0234 13.485 12.9396 13.5067 12.8526L13.5335 12.7457C13.5527 12.6688 13.5546 12.5887 13.5391 12.511L13.5285 12.4579C13.5218 12.4244 13.5086 12.3926 13.4897 12.3643C13.4512 12.3066 13.3915 12.2666 13.3235 12.253L13.3066 12.2496C13.2426 12.2368 13.1763 12.2457 13.118 12.2748L13.1037 12.282C13.0562 12.3057 13.0177 12.3442 12.994 12.3917C12.9888 12.402 12.9844 12.4127 12.9807 12.4238L12.9658 12.4685C12.9499 12.516 12.9419 12.5658 12.9419 12.6159C12.9419 12.654 12.9372 12.692 12.928 12.729L12.9248 12.7415C12.9068 12.8136 12.8746 12.8813 12.83 12.9407C12.7867 12.9984 12.7327 13.0471 12.6709 13.0842L12.6224 13.1133C12.5695 13.1451 12.5132 13.1709 12.4547 13.1904L12.3691 13.2189C12.3076 13.2395 12.2446 13.2551 12.1806 13.2658C12.0679 13.2846 11.953 13.2877 11.8394 13.2751L11.7491 13.265C11.6578 13.2549 11.568 13.2334 11.4819 13.2011L11.4486 13.1886C11.3222 13.1413 11.2074 13.0673 11.112 12.9719C11.0318 12.8917 10.9667 12.7978 10.9198 12.6946L10.786 12.4003C10.7748 12.3756 10.7594 12.3526 10.739 12.3346Z" fill="#401E2B"/>
<path d="M37.943 24.33C36.3517 24.33 34.9473 24.0037 33.73 23.351C32.5127 22.6983 31.563 21.7743 30.881 20.579C30.199 19.3837 29.858 17.972 29.858 16.344C29.858 15.156 30.056 14.0707 30.452 13.088C30.8553 12.098 31.42 11.2437 32.146 10.525C32.8793 9.80633 33.741 9.25267 34.731 8.864C35.7283 8.468 36.8173 8.27 37.998 8.27C39.2813 8.27 40.3593 8.43133 41.232 8.754C42.1047 9.07667 42.893 9.535 43.597 10.129L41.771 13.132C41.3457 12.692 40.8323 12.3657 40.231 12.153C39.6297 11.933 38.966 11.823 38.24 11.823C37.5213 11.823 36.8797 11.9293 36.315 12.142C35.7577 12.3473 35.281 12.6443 34.885 13.033C34.4963 13.4217 34.1993 13.891 33.994 14.441C33.7887 14.991 33.686 15.607 33.686 16.289C33.686 17.2277 33.8693 18.0307 34.236 18.698C34.61 19.3653 35.1417 19.8787 35.831 20.238C36.5203 20.59 37.3453 20.766 38.306 20.766C38.9953 20.766 39.6773 20.6633 40.352 20.458C41.034 20.2453 41.6793 19.9043 42.288 19.435L43.96 22.504C43.2487 23.054 42.398 23.4977 41.408 23.835C40.418 24.165 39.263 24.33 37.943 24.33ZM51.2143 24.33C49.9897 24.33 48.908 24.0623 47.9693 23.527C47.0307 22.9843 46.2937 22.262 45.7583 21.36C45.2303 20.458 44.9663 19.468 44.9663 18.39C44.9663 17.6053 45.1167 16.8573 45.4173 16.146C45.7253 15.4273 46.158 14.793 46.7153 14.243C47.2727 13.6857 47.9327 13.2493 48.6953 12.934C49.458 12.6113 50.2977 12.45 51.2143 12.45C52.439 12.45 53.5207 12.7213 54.4593 13.264C55.398 13.7993 56.1313 14.518 56.6593 15.42C57.1873 16.322 57.4513 17.312 57.4513 18.39C57.4513 19.1747 57.301 19.9263 57.0003 20.645C56.6997 21.3563 56.2707 21.987 55.7133 22.537C55.156 23.087 54.496 23.5233 53.7333 23.846C52.9707 24.1687 52.131 24.33 51.2143 24.33ZM51.2143 21.228C51.7277 21.228 52.1897 21.1143 52.6003 20.887C53.011 20.6523 53.3337 20.3223 53.5683 19.897C53.803 19.4717 53.9203 18.9693 53.9203 18.39C53.9203 17.8033 53.803 17.301 53.5683 16.883C53.341 16.4577 53.022 16.1313 52.6113 15.904C52.2007 15.6693 51.735 15.552 51.2143 15.552C50.6937 15.552 50.228 15.6693 49.8173 15.904C49.4067 16.1313 49.084 16.4577 48.8493 16.883C48.6147 17.301 48.4973 17.8033 48.4973 18.39C48.4973 18.9693 48.6147 19.4717 48.8493 19.897C49.0913 20.3223 49.4177 20.6523 49.8283 20.887C50.239 21.1143 50.701 21.228 51.2143 21.228ZM64.9958 24.33C63.8078 24.33 62.7444 24.0733 61.8058 23.56C60.8744 23.0393 60.1374 22.3317 59.5948 21.437C59.0521 20.535 58.7808 19.5193 58.7808 18.39C58.7808 17.5393 58.9384 16.7547 59.2538 16.036C59.5764 15.3173 60.0274 14.6903 60.6068 14.155C61.1861 13.6123 61.8608 13.1943 62.6308 12.901C63.4008 12.6003 64.2368 12.45 65.1388 12.45C65.9894 12.45 66.7778 12.5673 67.5038 12.802C68.2298 13.0293 68.8824 13.374 69.4618 13.836L67.8778 16.509C67.5184 16.179 67.1224 15.937 66.6898 15.783C66.2644 15.629 65.8171 15.552 65.3478 15.552C64.7318 15.552 64.2001 15.662 63.7528 15.882C63.3054 16.102 62.9608 16.4247 62.7188 16.85C62.4841 17.2753 62.3668 17.785 62.3668 18.379C62.3668 19.2737 62.6308 19.974 63.1588 20.48C63.6941 20.9787 64.4274 21.228 65.3588 21.228C65.8868 21.228 66.3818 21.1327 66.8438 20.942C67.3131 20.744 67.7421 20.458 68.1308 20.084L69.5938 22.812C68.9631 23.2813 68.2408 23.6517 67.4268 23.923C66.6201 24.1943 65.8098 24.33 64.9958 24.33ZM76.6089 24.33C75.3842 24.33 74.3025 24.0623 73.3639 23.527C72.4252 22.9843 71.6882 22.262 71.1529 21.36C70.6249 20.458 70.3609 19.468 70.3609 18.39C70.3609 17.6053 70.5112 16.8573 70.8119 16.146C71.1199 15.4273 71.5525 14.793 72.1099 14.243C72.6672 13.6857 73.3272 13.2493 74.0899 12.934C74.8525 12.6113 75.6922 12.45 76.6089 12.45C77.8335 12.45 78.9152 12.7213 79.8539 13.264C80.7925 13.7993 81.5259 14.518 82.0539 15.42C82.5819 16.322 82.8459 17.312 82.8459 18.39C82.8459 19.1747 82.6955 19.9263 82.3949 20.645C82.0942 21.3563 81.6652 21.987 81.1079 22.537C80.5505 23.087 79.8905 23.5233 79.1279 23.846C78.3652 24.1687 77.5255 24.33 76.6089 24.33ZM76.6089 21.228C77.1222 21.228 77.5842 21.1143 77.9949 20.887C78.4055 20.6523 78.7282 20.3223 78.9629 19.897C79.1975 19.4717 79.3149 18.9693 79.3149 18.39C79.3149 17.8033 79.1975 17.301 78.9629 16.883C78.7355 16.4577 78.4165 16.1313 78.0059 15.904C77.5952 15.6693 77.1295 15.552 76.6089 15.552C76.0882 15.552 75.6225 15.6693 75.2119 15.904C74.8012 16.1313 74.4785 16.4577 74.2439 16.883C74.0092 17.301 73.8919 17.8033 73.8919 18.39C73.8919 18.9693 74.0092 19.4717 74.2439 19.897C74.4859 20.3223 74.8122 20.6523 75.2229 20.887C75.6335 21.1143 76.0955 21.228 76.6089 21.228ZM85.2779 24V8.6H88.9299V24H85.2779ZM92.2421 24V12.78H95.8501V13.968C96.2681 13.44 96.7631 13.055 97.3351 12.813C97.9071 12.571 98.5084 12.45 99.1391 12.45C100.195 12.45 101.064 12.659 101.746 13.077C102.428 13.4877 102.93 14.023 103.253 14.683C103.583 15.3357 103.748 16.0287 103.748 16.762V24H100.14V17.895C100.14 17.2203 99.9604 16.6887 99.6011 16.3C99.2491 15.9113 98.7284 15.717 98.0391 15.717C97.5991 15.717 97.2141 15.8123 96.8841 16.003C96.5614 16.1937 96.3084 16.465 96.1251 16.817C95.9418 17.1617 95.8501 17.5577 95.8501 18.005V24H92.2421ZM111.323 24.33C110.259 24.33 109.306 24.0843 108.463 23.593C107.619 23.0943 106.956 22.4013 106.472 21.514C105.988 20.6193 105.746 19.578 105.746 18.39C105.746 17.5467 105.885 16.7657 106.164 16.047C106.442 15.3283 106.831 14.7013 107.33 14.166C107.836 13.6233 108.433 13.2017 109.123 12.901C109.812 12.6003 110.567 12.45 111.389 12.45C112.247 12.45 113.02 12.6187 113.71 12.956C114.399 13.2933 115 13.7957 115.514 14.463L114.689 15.288V8.16H118.297V24H115.184V21.085L115.679 21.899C115.356 22.6177 114.817 23.2043 114.062 23.659C113.306 24.1063 112.393 24.33 111.323 24.33ZM111.994 21.228C112.507 21.228 112.969 21.1143 113.38 20.887C113.79 20.6523 114.113 20.3223 114.348 19.897C114.582 19.4717 114.7 18.9693 114.7 18.39C114.7 17.8033 114.582 17.301 114.348 16.883C114.12 16.4577 113.801 16.1313 113.391 15.904C112.98 15.6693 112.514 15.552 111.994 15.552C111.473 15.552 111.007 15.6693 110.597 15.904C110.186 16.1313 109.863 16.4577 109.629 16.883C109.394 17.301 109.277 17.8033 109.277 18.39C109.277 18.9693 109.394 19.4717 109.629 19.897C109.871 20.3223 110.197 20.6523 110.608 20.887C111.018 21.1143 111.48 21.228 111.994 21.228ZM126.602 24.33C125.37 24.33 124.288 24.0843 123.357 23.593C122.426 23.0943 121.7 22.4013 121.179 21.514C120.658 20.6193 120.398 19.5743 120.398 18.379C120.398 17.5137 120.548 16.718 120.849 15.992C121.157 15.266 121.582 14.639 122.125 14.111C122.675 13.583 123.32 13.176 124.061 12.89C124.809 12.5967 125.63 12.45 126.525 12.45C127.508 12.45 128.384 12.626 129.154 12.978C129.924 13.3227 130.558 13.8067 131.057 14.43C131.563 15.046 131.911 15.7757 132.102 16.619C132.293 17.455 132.3 18.3643 132.124 19.347H123.698C123.705 19.787 123.837 20.172 124.094 20.502C124.351 20.832 124.703 21.0923 125.15 21.283C125.597 21.4663 126.118 21.558 126.712 21.558C127.372 21.558 127.999 21.4737 128.593 21.305C129.187 21.129 129.755 20.8613 130.298 20.502L131.431 22.944C131.086 23.208 130.639 23.4463 130.089 23.659C129.546 23.8643 128.967 24.0257 128.351 24.143C127.742 24.2677 127.159 24.33 126.602 24.33ZM123.918 16.916H128.692C128.677 16.3513 128.468 15.9003 128.065 15.563C127.662 15.2257 127.115 15.057 126.426 15.057C125.729 15.057 125.15 15.2257 124.688 15.563C124.233 15.9003 123.977 16.3513 123.918 16.916ZM132.904 24.033L136.941 18.467L133.113 12.78H137.667L139.46 15.992L141.209 12.78H145.664L141.946 18.401L145.939 24H141.319L139.339 20.832L137.337 23.967L132.904 24.033Z" fill="white"/>
</svg>
