<svg width="142" height="32" viewBox="0 0 142 32" fill="none" xmlns="http://www.w3.org/2000/svg">
<path d="M11.5851 5.40989C12.1085 6.1453 12.0636 6.66523 12.0636 6.66523L11.7376 6.39691L11.447 6.16288L10.8327 5.64709L10.3028 5.17456C10.3028 5.17456 10.0375 4.93382 9.93531 4.85693C9.83315 4.78004 9.95915 4.49992 10.1855 4.40247C10.4119 4.30503 10.6292 4.48391 10.6292 4.48391C10.6292 4.48391 11.0618 4.67447 11.5851 5.40989Z" fill="#532638"/>
<path d="M13.0263 5.06705C10.7942 6.44468 10.1143 7.40752 9.25098 9.24146C9.25098 9.24146 14.4926 11.4059 15.0464 11.4059C15.6002 11.4059 16.9693 11.3997 18.1021 10.5465C19.2349 9.69341 20.2522 8.01372 21.1254 6.06331C19.2751 4.67642 18.6243 4.12902 16.2139 4.09509C14.9408 4.15893 14.0355 4.49542 13.0263 5.06705Z" fill="#27E62B" fill-opacity="0.75"/>
<path d="M17.4717 5.32013C17.4405 5.70391 17.0696 5.98656 16.6433 5.95145C16.2169 5.91633 15.8967 5.57676 15.9279 5.19298C15.9591 4.8092 16.33 4.52655 16.7563 4.56166C17.1827 4.59678 17.503 4.93636 17.4717 5.32013Z" fill="#F6F4E9"/>
<path d="M5.40649 7.6129C3.84329 8.6471 2.64886 9.86861 1.88619 11.7552C1.12352 13.6418 3.09773 16.3995 5.74139 17.7841C8.28929 18.9257 9.71685 19.0468 12.2624 18.8914C14.4844 18.689 16.1996 18.1942 17.8401 16.9228C19.4807 15.6514 20.8751 13.1496 20.0958 11.5502C19.3166 9.95064 18.4143 8.80228 16.6507 7.65392C14.8872 6.50556 12.9118 5.97241 10.827 5.97241C8.67038 5.98437 7.20429 6.42353 5.40649 7.6129Z" fill="#FCF3D8"/>
<path d="M6.08404 8.22326C4.71892 9.0733 3.6758 10.0773 3.00974 11.628C2.34372 13.1786 4.06783 15.4453 6.37651 16.5833C8.60158 17.5216 9.84827 17.6211 12.0713 17.4934C14.0117 17.3271 15.5097 16.9203 16.9423 15.8754C18.375 14.8303 19.5928 12.7741 18.9122 11.4594C18.2317 10.1447 17.4438 9.20085 15.9037 8.25697C14.3635 7.31313 12.6385 6.87488 10.8177 6.87488C8.93439 6.88471 7.65407 7.2457 6.08404 8.22326Z" fill="#E59A63"/>
<path d="M6.804 9.48123C7.3623 9.38119 7.7825 9.11935 7.74255 8.89639C7.70259 8.67344 7.21762 8.5738 6.65932 8.67384C6.10103 8.77388 5.68082 9.03572 5.72078 9.25868C5.76073 9.48163 6.2457 9.58127 6.804 9.48123Z" fill="#401D30"/>
<path d="M15.2975 9.43072C15.8598 9.50553 16.3398 9.38415 16.3696 9.15963C16.3995 8.9351 15.9679 8.69244 15.4057 8.61763C14.8435 8.54282 14.3635 8.66419 14.3336 8.88872C14.3037 9.11325 14.7353 9.35591 15.2975 9.43072Z" fill="#401D30"/>
<path d="M5.40714 15.4876C6.08666 15.4876 6.63752 15.1938 6.63752 14.8314C6.63752 14.469 6.08666 14.1752 5.40714 14.1752C4.72762 14.1752 4.17676 14.469 4.17676 14.8314C4.17676 15.1938 4.72762 15.4876 5.40714 15.4876Z" fill="#FB6A76"/>
<path d="M16.6454 15.4876C17.3249 15.4876 17.8758 15.1938 17.8758 14.8314C17.8758 14.469 17.3249 14.1752 16.6454 14.1752C15.9659 14.1752 15.415 14.469 15.415 14.8314C15.415 15.1938 15.9659 15.4876 16.6454 15.4876Z" fill="#FB6A76"/>
<path d="M6.32126 12.1678C6.74247 12.1678 7.08392 11.8748 7.08392 11.5133C7.08392 11.1518 6.74247 10.8588 6.32126 10.8588C5.90005 10.8588 5.55859 11.1518 5.55859 11.5133C5.55859 11.8748 5.90005 12.1678 6.32126 12.1678Z" fill="#F6F4E9"/>
<path d="M14.6865 12.1678C15.1077 12.1678 15.4492 11.8748 15.4492 11.5133C15.4492 11.1518 15.1077 10.8588 14.6865 10.8588C14.2653 10.8588 13.9238 11.1518 13.9238 11.5133C13.9238 11.8748 14.2653 12.1678 14.6865 12.1678Z" fill="#F6F4E9"/>
<path d="M10.9856 26.2915C16.603 26.2915 21.1567 21.7377 21.1567 16.1204C21.1567 10.503 16.603 5.94922 10.9856 5.94922C5.36823 5.94922 0.814453 10.503 0.814453 16.1204C0.814453 21.7377 5.36823 26.2915 10.9856 26.2915Z" fill="#BE5133"/>
<path d="M5.40605 7.51855C3.84096 8.55165 2.64511 9.77193 1.8815 11.6565C1.11791 13.5412 3.09453 16.296 5.74135 17.6792C8.29232 18.8196 9.72163 18.9405 12.2702 18.7854C14.4949 18.5832 16.2122 18.0889 17.8547 16.8188C19.4972 15.5487 20.8933 13.0495 20.1131 11.4517C19.3329 9.85384 18.4296 8.7067 16.6639 7.55953C14.8982 6.41235 12.9205 5.87976 10.8331 5.87976C8.67389 5.89168 7.20602 6.33044 5.40605 7.51855Z" fill="#FCF3D8"/>
<path d="M6.08404 8.22326C4.71892 9.0733 3.6758 10.0773 3.00974 11.628C2.34372 13.1786 4.06783 15.4453 6.37651 16.5833C8.60158 17.5216 9.84827 17.6211 12.0713 17.4934C14.0117 17.3271 15.5097 16.9203 16.9423 15.8754C18.375 14.8303 19.5928 12.7741 18.9122 11.4594C18.2317 10.1447 17.4438 9.20085 15.9037 8.25697C14.3635 7.31313 12.6385 6.87488 10.8177 6.87488C8.93439 6.88471 7.65407 7.2457 6.08404 8.22326Z" fill="#E59A63"/>
<path d="M6.804 9.48123C7.3623 9.38119 7.7825 9.11935 7.74255 8.89639C7.70259 8.67344 7.21762 8.5738 6.65932 8.67384C6.10103 8.77388 5.68082 9.03572 5.72078 9.25868C5.76073 9.48163 6.2457 9.58127 6.804 9.48123Z" fill="#401D30"/>
<path d="M15.2975 9.43072C15.8598 9.50553 16.3398 9.38415 16.3696 9.15963C16.3995 8.9351 15.9679 8.69244 15.4057 8.61763C14.8435 8.54282 14.3635 8.66419 14.3336 8.88872C14.3037 9.11325 14.7353 9.35591 15.2975 9.43072Z" fill="#401D30"/>
<path d="M5.40714 15.4876C6.08666 15.4876 6.63752 15.1938 6.63752 14.8314C6.63752 14.469 6.08666 14.1752 5.40714 14.1752C4.72762 14.1752 4.17676 14.469 4.17676 14.8314C4.17676 15.1938 4.72762 15.4876 5.40714 15.4876Z" fill="#FB6A76"/>
<path d="M16.6454 15.4876C17.3249 15.4876 17.8758 15.1938 17.8758 14.8314C17.8758 14.469 17.3249 14.1752 16.6454 14.1752C15.9659 14.1752 15.415 14.469 15.415 14.8314C15.415 15.1938 15.9659 15.4876 16.6454 15.4876Z" fill="#FB6A76"/>
<path d="M6.8026 14.0931C7.84453 14.0931 8.68918 13.2485 8.68918 12.2065C8.68918 11.1646 7.84453 10.3199 6.8026 10.3199C5.76067 10.3199 4.91602 11.1646 4.91602 12.2065C4.91602 13.2485 5.76067 14.0931 6.8026 14.0931Z" fill="#401D30"/>
<path d="M6.32126 12.1678C6.74247 12.1678 7.08392 11.8748 7.08392 11.5133C7.08392 11.1518 6.74247 10.8588 6.32126 10.8588C5.90005 10.8588 5.55859 11.1518 5.55859 11.5133C5.55859 11.8748 5.90005 12.1678 6.32126 12.1678Z" fill="#F6F4E9"/>
<path d="M15.1698 14.0931C16.2117 14.0931 17.0564 13.2485 17.0564 12.2065C17.0564 11.1646 16.2117 10.3199 15.1698 10.3199C14.1279 10.3199 13.2832 11.1646 13.2832 12.2065C13.2832 13.2485 14.1279 14.0931 15.1698 14.0931Z" fill="#401D30"/>
<path d="M14.6865 12.1678C15.1077 12.1678 15.4492 11.8748 15.4492 11.5133C15.4492 11.1518 15.1077 10.8588 14.6865 10.8588C14.2653 10.8588 13.9238 11.1518 13.9238 11.5133C13.9238 11.8748 14.2653 12.1678 14.6865 12.1678Z" fill="#F6F4E9"/>
<path d="M10.3594 24.5529C10.0247 24.5101 9.21254 22.2168 9.62118 20.4926C9.98217 20.1925 10.1741 20.2878 10.2364 20.6567C9.91973 22.6638 10.2597 23.2492 10.8926 24.2658C10.7927 24.5558 10.6941 24.5957 10.3594 24.5529Z" fill="#6A1E23"/>
<path d="M18.3272 18.8555C18.3651 18.4846 17.6304 18.1453 17.6711 18.8555C17.7117 19.5658 16.9915 22.0188 16.7278 22.3826C16.464 22.7465 16.8918 23.0389 17.3019 22.7517C17.7121 22.4646 18.2893 19.2265 18.3272 18.8555Z" fill="#7A2826"/>
<path d="M4.58691 20.2826C4.67818 19.8509 5.03803 19.7905 5.16107 20.1596C5.28412 20.5287 5.61744 21.5673 6.2274 22.5383C6.8016 23.1945 7.14878 23.2704 7.74489 23.6047C7.845 23.8009 7.70388 24.0558 7.53982 24.0968C7.37576 24.1378 6.67856 23.8097 6.18639 23.3176C5.84584 22.9241 5.65297 22.736 5.32513 22.1282C4.97519 21.4541 4.79277 21.0658 4.58691 20.2826Z" fill="#6A1E23"/>
<path d="M9.9322 12.5493L9.92477 12.5429C9.85329 12.4824 9.7278 12.4889 9.64087 12.5237C9.60448 12.5382 9.57325 12.5633 9.55115 12.5956L9.54724 12.6013C9.52221 12.6379 9.50879 12.6813 9.50879 12.7257V12.7806C9.50879 12.8889 9.52947 12.9963 9.56974 13.0969L9.59082 13.1497L9.62911 13.2167C9.7124 13.3624 9.82064 13.4952 9.94613 13.6068C10.0629 13.7106 10.1967 13.7972 10.3395 13.8607C10.4416 13.906 10.5484 13.94 10.658 13.9619L10.7419 13.9787C10.8492 14.0002 10.9583 14.011 11.0678 14.011H11.074C11.2057 14.011 11.3369 13.9948 11.4647 13.9629C11.555 13.9403 11.6432 13.9099 11.7283 13.8721L11.8144 13.8338C11.9173 13.7881 12.013 13.7277 12.0985 13.6544C12.2031 13.5647 12.2909 13.4571 12.3578 13.3367L12.401 13.2589C12.4413 13.1864 12.4719 13.1089 12.492 13.0284L12.5168 12.9295C12.5345 12.8585 12.5363 12.7843 12.5219 12.7125L12.5121 12.6634C12.5059 12.6324 12.4937 12.603 12.4762 12.5768C12.4407 12.5234 12.3854 12.4864 12.3225 12.4739L12.3069 12.4707C12.2477 12.4589 12.1864 12.4671 12.1324 12.4941L12.1192 12.5007C12.0753 12.5227 12.0397 12.5582 12.0178 12.6021C12.013 12.6117 12.0089 12.6216 12.0055 12.6318L11.9917 12.6732C11.977 12.7171 11.9696 12.7632 11.9696 12.8095C11.9696 12.8448 11.9652 12.8799 11.9567 12.9141L11.9538 12.9257C11.9371 12.9923 11.9073 13.055 11.8661 13.1099C11.8261 13.1633 11.7761 13.2083 11.7189 13.2426L11.6741 13.2696C11.6251 13.2989 11.5731 13.3228 11.519 13.3409L11.4399 13.3673C11.3829 13.3862 11.3247 13.4007 11.2655 13.4106C11.1612 13.428 11.055 13.4309 10.9499 13.4192L10.8664 13.4099C10.7819 13.4005 10.6989 13.3807 10.6193 13.3508L10.5884 13.3392C10.4715 13.2954 10.3654 13.227 10.2771 13.1388C10.203 13.0646 10.1428 12.9778 10.0994 12.8823L9.97566 12.6101C9.96528 12.5872 9.95102 12.566 9.9322 12.5493Z" fill="#401E2B"/>
<path d="M33.7726 24.33C32.1813 24.33 30.7806 24.0037 29.5706 23.351C28.3606 22.691 27.4183 21.7633 26.7436 20.568C26.069 19.3653 25.7316 17.9537 25.7316 16.333C25.7316 15.1523 25.9296 14.0707 26.3256 13.088C26.7216 12.1053 27.2826 11.2547 28.0086 10.536C28.7346 9.81 29.589 9.25267 30.5716 8.864C31.5616 8.468 32.6433 8.27 33.8166 8.27C35.0633 8.27 36.1193 8.42767 36.9846 8.743C37.85 9.05833 38.6273 9.502 39.3166 10.074L37.6666 12.747C37.2193 12.307 36.6876 11.977 36.0716 11.757C35.463 11.537 34.7846 11.427 34.0366 11.427C33.274 11.427 32.5883 11.5407 31.9796 11.768C31.3783 11.9953 30.865 12.3217 30.4396 12.747C30.0216 13.165 29.699 13.6747 29.4716 14.276C29.2516 14.87 29.1416 15.541 29.1416 16.289C29.1416 17.3157 29.3396 18.192 29.7356 18.918C30.139 19.6367 30.711 20.1903 31.4516 20.579C32.1996 20.9677 33.0906 21.162 34.1246 21.162C34.8433 21.162 35.5473 21.052 36.2366 20.832C36.9333 20.612 37.5896 20.26 38.2056 19.776L39.7016 22.515C38.9756 23.0723 38.125 23.516 37.1496 23.846C36.1743 24.1687 35.0486 24.33 33.7726 24.33ZM46.9559 24.33C45.7606 24.33 44.7009 24.0623 43.7769 23.527C42.8529 22.9917 42.1269 22.2803 41.5989 21.393C41.0783 20.4983 40.8179 19.5157 40.8179 18.445C40.8179 17.6603 40.9683 16.916 41.2689 16.212C41.5696 15.5007 41.9949 14.8737 42.5449 14.331C43.0949 13.781 43.7439 13.3483 44.4919 13.033C45.2399 12.7177 46.0613 12.56 46.9559 12.56C48.1513 12.56 49.2073 12.8277 50.1239 13.363C51.0479 13.8983 51.7703 14.6133 52.2909 15.508C52.8189 16.3953 53.0829 17.3743 53.0829 18.445C53.0829 19.2223 52.9326 19.9667 52.6319 20.678C52.3313 21.3893 51.9059 22.02 51.3559 22.57C50.8133 23.1127 50.1679 23.5417 49.4199 23.857C48.6719 24.1723 47.8506 24.33 46.9559 24.33ZM46.9559 21.547C47.5206 21.547 48.0266 21.4223 48.4739 21.173C48.9213 20.9163 49.2733 20.557 49.5299 20.095C49.7866 19.6257 49.9149 19.0757 49.9149 18.445C49.9149 17.807 49.7866 17.257 49.5299 16.795C49.2806 16.333 48.9323 15.9773 48.4849 15.728C48.0376 15.4713 47.5279 15.343 46.9559 15.343C46.3839 15.343 45.8706 15.4713 45.4159 15.728C44.9686 15.9773 44.6166 16.333 44.3599 16.795C44.1106 17.257 43.9859 17.807 43.9859 18.445C43.9859 19.083 44.1143 19.633 44.3709 20.095C44.6276 20.557 44.9796 20.9163 45.4269 21.173C45.8743 21.4223 46.3839 21.547 46.9559 21.547ZM60.609 24.33C59.4357 24.33 58.387 24.0733 57.463 23.56C56.539 23.0467 55.8093 22.3463 55.274 21.459C54.746 20.5717 54.482 19.567 54.482 18.445C54.482 17.6017 54.6397 16.8243 54.955 16.113C55.2703 15.3943 55.7103 14.771 56.275 14.243C56.847 13.7077 57.5143 13.2933 58.277 13C59.0397 12.7067 59.8647 12.56 60.752 12.56C61.566 12.56 62.3177 12.67 63.007 12.89C63.7037 13.11 64.3343 13.44 64.899 13.88L63.447 16.278C63.095 15.9627 62.7027 15.728 62.27 15.574C61.8447 15.42 61.3937 15.343 60.917 15.343C60.2497 15.343 59.674 15.464 59.19 15.706C58.7133 15.948 58.343 16.3 58.079 16.762C57.8223 17.224 57.694 17.7813 57.694 18.434C57.694 19.4093 57.98 20.172 58.552 20.722C59.1313 21.272 59.9197 21.547 60.917 21.547C61.4523 21.547 61.9547 21.448 62.424 21.25C62.9007 21.052 63.3223 20.777 63.689 20.425L65.042 22.856C64.4333 23.3107 63.7403 23.67 62.963 23.934C62.1857 24.198 61.401 24.33 60.609 24.33ZM72.0497 24.33C70.8544 24.33 69.7947 24.0623 68.8707 23.527C67.9467 22.9917 67.2207 22.2803 66.6927 21.393C66.172 20.4983 65.9117 19.5157 65.9117 18.445C65.9117 17.6603 66.062 16.916 66.3627 16.212C66.6634 15.5007 67.0887 14.8737 67.6387 14.331C68.1887 13.781 68.8377 13.3483 69.5857 13.033C70.3337 12.7177 71.155 12.56 72.0497 12.56C73.245 12.56 74.301 12.8277 75.2177 13.363C76.1417 13.8983 76.864 14.6133 77.3847 15.508C77.9127 16.3953 78.1767 17.3743 78.1767 18.445C78.1767 19.2223 78.0264 19.9667 77.7257 20.678C77.425 21.3893 76.9997 22.02 76.4497 22.57C75.907 23.1127 75.2617 23.5417 74.5137 23.857C73.7657 24.1723 72.9444 24.33 72.0497 24.33ZM72.0497 21.547C72.6144 21.547 73.1204 21.4223 73.5677 21.173C74.015 20.9163 74.367 20.557 74.6237 20.095C74.8804 19.6257 75.0087 19.0757 75.0087 18.445C75.0087 17.807 74.8804 17.257 74.6237 16.795C74.3744 16.333 74.026 15.9773 73.5787 15.728C73.1314 15.4713 72.6217 15.343 72.0497 15.343C71.4777 15.343 70.9644 15.4713 70.5097 15.728C70.0624 15.9773 69.7104 16.333 69.4537 16.795C69.2044 17.257 69.0797 17.807 69.0797 18.445C69.0797 19.083 69.208 19.633 69.4647 20.095C69.7214 20.557 70.0734 20.9163 70.5207 21.173C70.968 21.4223 71.4777 21.547 72.0497 21.547ZM80.7003 24V8.6H83.9563V24H80.7003ZM87.3852 24V12.89H90.5972V14.144C91.0226 13.5867 91.5249 13.1833 92.1042 12.934C92.6909 12.6847 93.3032 12.56 93.9412 12.56C94.9752 12.56 95.8259 12.7653 96.4932 13.176C97.1679 13.5793 97.6666 14.1037 97.9892 14.749C98.3192 15.3943 98.4842 16.0727 98.4842 16.784V24H95.2722V17.785C95.2722 17.081 95.0742 16.52 94.6782 16.102C94.2896 15.684 93.7249 15.475 92.9842 15.475C92.5149 15.475 92.1006 15.5813 91.7412 15.794C91.3819 15.9993 91.0996 16.289 90.8942 16.663C90.6962 17.037 90.5972 17.4697 90.5972 17.961V24H87.3852ZM106.131 24.33C105.061 24.33 104.107 24.0843 103.271 23.593C102.443 23.0943 101.786 22.4013 101.302 21.514C100.826 20.6267 100.587 19.6037 100.587 18.445C100.587 17.6163 100.723 16.8463 100.994 16.135C101.273 15.4237 101.662 14.8003 102.16 14.265C102.659 13.7297 103.249 13.3117 103.931 13.011C104.613 12.7103 105.365 12.56 106.186 12.56C107.088 12.56 107.888 12.7397 108.584 13.099C109.288 13.451 109.893 13.968 110.399 14.65L109.673 15.387V8.16H112.885V24H110.091V21.184L110.531 21.91C110.187 22.6213 109.64 23.2043 108.892 23.659C108.144 24.1063 107.224 24.33 106.131 24.33ZM106.725 21.547C107.29 21.547 107.796 21.4223 108.243 21.173C108.691 20.9163 109.043 20.557 109.299 20.095C109.556 19.633 109.684 19.083 109.684 18.445C109.684 17.807 109.556 17.257 109.299 16.795C109.05 16.333 108.702 15.9773 108.254 15.728C107.807 15.4713 107.297 15.343 106.725 15.343C106.153 15.343 105.644 15.4713 105.196 15.728C104.749 15.9773 104.397 16.333 104.14 16.795C103.884 17.257 103.755 17.807 103.755 18.445C103.755 19.083 103.884 19.633 104.14 20.095C104.397 20.557 104.749 20.9163 105.196 21.173C105.644 21.4223 106.153 21.547 106.725 21.547ZM121.194 24.33C119.984 24.33 118.921 24.0843 118.004 23.593C117.088 23.1017 116.373 22.416 115.859 21.536C115.346 20.656 115.089 19.6257 115.089 18.445C115.089 17.587 115.236 16.7987 115.529 16.08C115.83 15.3613 116.248 14.7417 116.783 14.221C117.326 13.693 117.96 13.286 118.686 13C119.42 12.7067 120.223 12.56 121.095 12.56C122.056 12.56 122.907 12.7287 123.647 13.066C124.395 13.4033 125.015 13.8763 125.506 14.485C125.998 15.0863 126.339 15.794 126.529 16.608C126.727 17.422 126.746 18.3057 126.584 19.259H118.07C118.07 19.7723 118.202 20.2197 118.466 20.601C118.738 20.9823 119.115 21.283 119.599 21.503C120.091 21.7157 120.663 21.822 121.315 21.822C121.961 21.822 122.577 21.734 123.163 21.558C123.75 21.382 124.304 21.1143 124.824 20.755L125.891 22.955C125.539 23.2263 125.099 23.4683 124.571 23.681C124.043 23.8863 123.482 24.044 122.888 24.154C122.302 24.2713 121.737 24.33 121.194 24.33ZM118.257 17.048H123.504C123.482 16.3953 123.251 15.8783 122.811 15.497C122.379 15.1157 121.781 14.925 121.018 14.925C120.256 14.925 119.621 15.1157 119.115 15.497C118.617 15.8783 118.331 16.3953 118.257 17.048ZM127.456 24.022L131.46 18.489L127.665 12.89H131.724L133.693 16.267L135.607 12.89H139.567L135.882 18.423L139.853 24H135.739L133.583 20.612L131.394 23.967L127.456 24.022Z" fill="black"/>
</svg>
